<svg xmlns="http://www.w3.org/2000/svg" version="1.1"
     width="512" height="512" x="0" y="0" viewBox="0 0 60 56" style="enable-background:new 0 0 512 512" xml:space="preserve" class="">
    <g><g xmlns="http://www.w3.org/2000/svg" id="Page-1" fill="none" fill-rule="evenodd"><g id="006---Coffee" fill="rgb(0,0,0)" fill-rule="nonzero" transform="translate(-1 -1)"><path id="Shape" d="m54.965 40.588c3.4119675-4.7378638 4.8860287-10.59977 4.121-16.388l-1.045-7.932c-.653-4.914-10.233-6.627-19.9-6.193.721-2.431 1.2-5.337-.151-7.235-1.0425795-1.3017931-2.6692101-1.99301721-4.33-1.84-1.662026-.15266454-3.2896779.53926595-4.333 1.842-1.555 2.186-.705 5.643.146 8.167-11.41 1.914-19.943 6.127-20.9 10.358-.13265336.4658517-.16671151.9542456-.1 1.434v.016l.258 1.962c-2.46489455.2858243-4.68489823 1.6259974-6.086 3.674-1.39794613 2.2020813-1.94246633 4.8393232-1.531 7.415.42540335 2.7842842 2.07691179 5.2310857 4.5 6.667.83990839.5338651 1.74193241.9630485 2.686 1.278-.80485257.8699312-1.2667626 2.0023214-1.3 3.187 0 6.5 13.911 10 27 10s27-3.5 27-10c0-2.461-2.084-4.662-6.035-6.412zm-15.94 7.433-3.965.523c-11.4925571 1.4934724-22.0279535-6.5905216-23.56-18.078l-.561-4.259c3.034 1.955 8.5 2.843 14.546 2.843 2.9924876-.006743 5.9814016-.2071619 8.948-.6 8.49-1.114 16.035-3.586 20.216-6.623.032258-.0183475.0633203-.0387217.093-.061.6528954-.4669241 1.2560653-.9997242 1.8-1.59l.564 4.28c1.5015479 11.4967878-6.587413 22.0391451-18.081 23.565zm-29.511-17.293c.35587469 2.6877246 1.1864485 5.2908439 2.453 7.688-1.0432868-.00825-2.06622219-.2895831-2.967-.816-.9904413-.5077675-1.70202357-1.431724-1.94-2.519-.16633133-.9874664-.04590158-2.0019222.347-2.923.39411165-.8208518 1.19862987-1.3668703 2.107-1.43zm46.545-14.2c.132 1-.656 2.194-2.211 3.4-2.7339457-.2957586-5.4931583-.2695795-8.221.078-3.362.415-5.926-.06-7.417-1.377-1.0093176-.9333285-1.5700195-2.2546191-1.54-3.629.148305-.9909549.4169563-1.9601147.8-2.886 11.19-.637 18.23 1.708 18.589 4.418zm-25.102-12.528c.6805256-.75744934 1.6902615-1.13142561 2.7-1 1.0098989-.13284778 2.0202791.24136713 2.7 1 1.213 1.705-.123 5.559-.562 6.825l-.01.031-.193.558c-.4817321 1.1435815-.7923993 2.3518816-.922 3.586-.0331491 1.9490519.7742108 3.8180755 2.216 5.13 1.961 1.732 4.985 2.362 8.987 1.862 1.6777084-.2057121 3.3682308-.2882662 5.058-.247-5.2944643 2.4724837-10.9556129 4.0679536-16.762 4.724-13.428 1.767-23.269-.648-23.713-3.909v-.021c0-.031 0-.058 0-.088 3.6109493-.8001752 7.3349412-.9555672 11-.459 4 .5 7.019-.129 8.979-1.859 1.4450789-1.3099314 2.2497354-3.1830841 2.205-5.133-.1248255-1.2235539-.4280381-2.4222546-.9-3.558-.094-.246-.179-.492-.268-.76-1.144-3.304-1.319-5.552-.515-6.682zm-.823 8.925c.2570916.667062.4271585 1.3644708.506 2.075.0300374 1.3758369-.5305482 2.6986731-1.54 3.634-1.489 1.316-4.05 1.789-7.409 1.374-3.3855604-.4423528-6.8180707-.3789938-10.185.188 2.474-2.696 9.211-5.734 18.628-7.27zm-27.034 22.682c-.34773371-2.0897071.07894759-4.2344917 1.2-6.032 1.07479207-1.5809532 2.79015451-2.6095856 4.691-2.813l.261 1.983c-1.57295082.1494095-2.95321917 1.1105527-3.639 2.534-.56734232 1.2755603-.75282494 2.6882154-.534 4.067.29397698 1.7093421 1.3707058 3.1827215 2.91 3.982 1.44896647.8585087 3.1359544 1.2273949 4.811 1.052.1-.013.182-.048.278-.065.4.607.821 1.2 1.273 1.761-.421071.1333901-.8530741.2294279-1.291.287-2.2363565.2360383-4.48631352-.2980531-6.378-1.514-1.91733226-1.1242788-3.23131059-3.0471918-3.582-5.242zm30.9 19.393c-14.732 0-25-4.216-25-8 .13289946-1.0748914.71734135-2.0422936 1.607-2.66.4553188.0592048.9138563.0902638 1.373.093 1.3002021.0090894 2.5886627-.2464252 3.787-.751 5.0580333 5.2622281 12.3183709 7.8033834 19.554 6.844l3.966-.526c5.5926503-.7327991 10.7181192-3.5038425 14.394-7.782 3.379 1.414 5.319 3.135 5.319 4.782 0 3.784-10.268 8-25 8z"></path></g></g></g></svg>
