<svg xmlns="http://www.w3.org/2000/svg" version="1.1"
     width="512" height="512" x="0" y="0" viewBox="0 0 66 66" style="enable-background:new 0 0 512 512" xml:space="preserve" class=""><g><g xmlns="http://www.w3.org/2000/svg" fill="rgb(0,0,0)"><path d="m65 58h-6.2c7.3-5.2 3.5-13.3-4.4-12.5 4.3-9.9-5.5-14.4-11.4-7-1 1.2-1.7 2.6-2.1 4.1-5.7-1.8-8.4 4.8-7.1 9.8.6 2.3 1.8 4.2 3.3 5.6h-7.7l1.4-4.7c4.1-14.7 5-33.3 2.5-52.4-.1-.5-.5-.9-1-.9-5.9 0-21.2 0-27 0-.5 0-.9.4-1 .9-2.4 19.1-1.5 37.7 2.7 52.4l1.4 4.7h-7.4c-.6 0-1 .4-1 1v6c0 .6.4 1 1 1h64c.6 0 1-.4 1-1v-6c0-.6-.4-1-1-1zm-12.3-19.5c1.1 2.1.8 5.2-.8 7.7-1.8.7-3.5 1.9-4.7 3.5-.1-.3-.4-1.1-.7-1.8 1.2-1.1 2.1-2.6 2.5-4.3.3-1.2.9-2.3 1.8-3.2zm-6.3 18.5c.3.4.6.7.9 1h-1.6c.3-.3.5-.6.7-1zm1.5-1.3 2.4-.3c1.7-.2 3.2-.8 4.5-1.9.9-.8 2-1.3 3.2-1.4l2.7-.3c-.8 5.6-9.5 8.5-12.8 3.9zm12.3-5.9c-.2 0-2.7.3-2.6.3-1.6.2-3.1.9-4.3 1.9-.9.8-2.1 1.3-3.4 1.4l-2.5.3c.9-5.4 9.2-8.7 12.8-3.9zm-15.6-10.1c2.3-2.9 5.1-3.2 6.7-2.7l-1.9 1.9c-1.2 1.1-2 2.6-2.4 4.2-.3 1.1-.8 2.1-1.6 2.9-.1-.1-1.1-1.5-2.6-2.5.3-1.4.9-2.7 1.8-3.8zm-1.2 17.9-.2-2.4c-.2-1.7-.8-3.3-1.9-4.6-.8-1-1.3-2.1-1.4-3.4l-.3-2.8c4.9.7 8.4 8.8 3.8 13.2zm-5.8-12.8.3 2.6c.2 1.6.8 3.2 1.9 4.4.8 1 1.3 2.2 1.4 3.5l.3 2.7c-5.4-.8-8.3-9.7-3.9-13.2zm-11.5 3.2h-14.3c-2.1-9.2-3.1-22.9-2.6-35.8.6-.3 1.2-.6 1.8-.8-.2.4-.1.9.3 1.2l6.6 4.9c.4.3 1.1.2 1.4-.2l4.1-5.5c1.7.1 3.5.1 5.2-.2.6 13-.4 27-2.5 36.4zm-6.7-37c.6.1 1.2.3 1.8.4l-2.8 3.9-5-3.7.7-1c1.7-.2 3.6-.1 5.3.4zm.4-1.9c-1.4-.4-2.8-.6-4.2-.6l1.4-2 3.8 2.8c-.3-.1-.7-.1-1-.2zm8.2-7.1c.2 2.4.4 4.9.6 7.5-1.4.2-2.7.4-4.1.3-.1-.2-.2-.4-.4-.6l-6.6-4.9c-.5-.3-1.1-.2-1.5.2l-3.1 4.2c-1.2.3-2.4.7-3.6 1.2.1-2.7.3-5.3.6-7.9zm-21.7 0h1.6c-1.6 16-.8 35.3 2.1 47.2.1.4.5.8 1 .8h15.8c.5 0 .9-.3 1-.8 2.9-11.9 3.8-31.2 2.2-47.2h1.6c2.3 18.2 1.4 35.9-2.4 50h-20.5c-3.8-14.1-4.7-31.8-2.4-50zm3 52h19.3l-1.2 4h-16.9zm54.7 10h-62v-4h62z" fill="" class=""></path><path
        d="m24.8 19.9c-.2-.5-.7-.8-1.2-.7l-6.7 2c-.5.2-.8.7-.7 1.2l2 6.7c.2.5.7.8 1.2.7l6.7-2c.5-.2.8-.7.7-1.2zm-5.1 7.7-1.4-4.8 4.8-1.4 1.4 4.8z"
        fill="" class=""></path><path
        d="m22.1 35.2-6.7-2.1c-.5-.2-1.1.1-1.3.7l-2.1 6.7c-.2.5.1 1.1.7 1.3l6.7 2.1c.5.2 1.1-.1 1.3-.7l2.1-6.7c.1-.5-.2-1.1-.7-1.3zm-3 6.4-4.8-1.5 1.5-4.8 4.8 1.5z"
        fill="" class=""></path><path d="m12.9 18c0-.6-.6-1.1-1.2-1-.4.1-.8.5-.8 1s.4 1 1 1 1-.4 1-1z"
                                      fill="" class=""></path><path
        d="m12.9 25c.9 0 1.3-1.1.7-1.7-.2-.2-.5-.3-.7-.3-.6 0-1 .5-1 1 0 .6.5 1 1 1z" fill=""
        class=""></path><path d="m23.9 15c0 .6.5 1 1 1 .6 0 1-.5 1-1 0-.4-.2-.8-.6-.9-.2-.1-.5-.1-.8 0s-.6.5-.6.9z" fill=""
                              class=""></path><path d="m23.9 33c0 .6.4 1 1 1 .9 0 1.3-1.1.7-1.7s-1.7-.2-1.7.7z"
                                                    fill="" class=""></path><path
        d="m22.9 42c0 .6.4 1 1 1 .9 0 1.3-1.1.7-1.7s-1.7-.2-1.7.7z" fill="" class=""></path><path
        d="m12.9 31c.9 0 1.3-1.1.7-1.7-.4-.4-1-.4-1.4 0-.6.6-.2 1.7.7 1.7z" fill="" class=""></path></g></g></svg>
