<svg xmlns="http://www.w3.org/2000/svg" version="1.1"
     width="512" height="512" x="0" y="0" viewBox="0 0 512 512" style="enable-background:new 0 0 512 512" xml:space="preserve" class=""><g><g xmlns="http://www.w3.org/2000/svg" id="_15_Chat">
    <path d="m272.57 165.56h-247.57a25 25 0 0 1 0-50h247.6a25 25 0 0 1 0 50z" fill="" class=""></path><path
        d="m487 165.56h-62.58a25 25 0 0 1 0-50h62.58a25 25 0 0 1 0 50z" fill="" class=""/><path
        d="m487 396.44h-247.57a25 25 0 0 1 0-50h247.57a25 25 0 0 1 0 50z" fill="" class=""/><path
        d="m87.58 396.44h-62.58a25 25 0 0 1 0-50h62.58a25 25 0 0 1 0 50z" fill="" class=""/><path
        d="m163.51 470.52a100.93 100.93 0 1 1 100.92-100.93 101 101 0 0 1 -100.92 100.93zm0-151.85a50.93 50.93 0 1 0 50.92 50.92 51 51 0 0 0 -50.92-50.92z"
        fill="" class=""/>
    <path
            d="m348.49 241.49a100.93 100.93 0 1 1 100.93-100.93 101 101 0 0 1 -100.93 100.93zm0-151.85a50.93 50.93 0 1 0 50.93 50.92 51 51 0 0 0 -50.93-50.92z"
            fill="" class=""/></g></g></svg>
